<svg width="80" height="84" viewBox="0 0 80 84" fill="none" xmlns="http://www.w3.org/2000/svg">
<path d="M40 79.5C18.1848 79.5 0.5 61.8152 0.5 40C0.5 18.1848 18.1848 0.5 40 0.5C61.8152 0.5 79.5 18.1848 79.5 40C79.5 61.8152 61.8152 79.5 40 79.5Z" stroke="#C29E60"/>
<path fill-rule="evenodd" clip-rule="evenodd" d="M39.6 27.2C39.0695 27.2 38.5608 27.4107 38.1858 27.7857C37.8107 28.1608 37.6 28.6695 37.6 29.2V82C37.6 82.5304 37.8107 83.0391 38.1858 83.4142C38.5608 83.7892 39.0695 84 39.6 84C40.1304 84 40.6391 83.7892 41.0142 83.4142C41.3893 83.0391 41.6 82.5304 41.6 82V29.2C41.6 28.6695 41.3893 28.1608 41.0142 27.7857C40.6391 27.4107 40.1304 27.2 39.6 27.2Z" fill="#937747"/>
<path fill-rule="evenodd" clip-rule="evenodd" d="M55.2 18.3999L41.6 31.1999V66.3999L55.2 53.5999V18.3999Z" fill="#C29E60"/>
<path fill-rule="evenodd" clip-rule="evenodd" d="M24 53.5999L37.6 66.3999V31.1999L24 18.3999V53.5999Z" fill="#C29E60"/>
</svg>
