<svg width="25" height="25" viewBox="0 0 25 25" fill="none" xmlns="http://www.w3.org/2000/svg">
<g clip-path="url(#clip0_75057:23)">
<path d="M16.655 22.0368V18.1668C16.6925 17.69 16.6281 17.2106 16.466 16.7606C16.304 16.3106 16.048 15.9002 15.715 15.5568C18.855 15.2068 22.155 14.0168 22.155 8.5568C22.1548 7.16063 21.6177 5.818 20.655 4.8068C21.1109 3.58531 21.0787 2.23515 20.565 1.0368C20.565 1.0368 19.385 0.686803 16.655 2.5168C14.363 1.89562 11.947 1.89562 9.65503 2.5168C6.92503 0.686803 5.74503 1.0368 5.74503 1.0368C5.23141 2.23515 5.19917 3.58531 5.65503 4.8068C4.68516 5.8255 4.14755 7.18027 4.15503 8.5868C4.15503 14.0068 7.45503 15.1968 10.595 15.5868C10.266 15.9268 10.0123 16.3322 9.85034 16.7767C9.68838 17.2212 9.62184 17.6949 9.65503 18.1668V22.0368M9.65503 19.0368C4.65503 20.5368 4.65503 16.5368 2.65503 16.0368L9.65503 19.0368Z" stroke="#C29E60" stroke-width="2" stroke-linecap="round" stroke-linejoin="round"/>
</g>
<defs>
<clipPath id="clip0_75057:23">
<rect width="24" height="24" fill="white" transform="translate(0.655029 0.0368652)"/>
</clipPath>
</defs>
</svg>
