<svg width="18" height="26" viewBox="0 0 18 26" fill="none" xmlns="http://www.w3.org/2000/svg">
<g clip-path="url(#clip0_74969:8)">
<path d="M14.8594 0.0246582H3.52608C3.01451 0.0246582 2.54229 0.130452 2.10942 0.342041C1.67655 0.55363 1.33222 0.83846 1.07643 1.19653C0.820643 1.55461 0.692749 1.94523 0.692749 2.36841V22.6809C0.692749 23.3319 0.968212 23.8853 1.51914 24.3411C2.07006 24.7968 2.73905 25.0247 3.52608 25.0247H14.8594C15.6465 25.0247 16.3154 24.7968 16.8664 24.3411C17.4173 23.8853 17.6927 23.3319 17.6927 22.6809V2.36841C17.6927 1.94523 17.5649 1.55461 17.3091 1.19653C17.0533 0.83846 16.709 0.55363 16.2761 0.342041C15.8432 0.130452 15.371 0.0246582 14.8594 0.0246582ZM15.8039 22.6809C15.8039 22.8925 15.7104 23.0756 15.5235 23.2302C15.3366 23.3848 15.1152 23.4622 14.8594 23.4622H3.52608C3.2703 23.4622 3.04894 23.3848 2.86202 23.2302C2.6751 23.0756 2.58164 22.8925 2.58164 22.6809V2.36841C2.58164 2.15682 2.6751 1.97371 2.86202 1.81909C3.04894 1.66447 3.2703 1.58716 3.52608 1.58716H14.8594C15.1152 1.58716 15.3366 1.66447 15.5235 1.81909C15.7104 1.97371 15.8039 2.15682 15.8039 2.36841V22.6809ZM9.20751 19.5559C8.68609 19.5559 8.23847 19.7105 7.86462 20.0198C7.49078 20.329 7.30386 20.6952 7.30386 21.1184C7.30386 21.3951 7.38748 21.6555 7.55473 21.8997C7.72197 22.1438 7.95317 22.335 8.2483 22.4734C8.54344 22.6117 8.85826 22.6809 9.19275 22.6809C9.52724 22.6809 9.84205 22.6117 10.1372 22.4734C10.4323 22.335 10.6635 22.1438 10.8308 21.8997C10.998 21.6555 11.0816 21.3951 11.0816 21.1184C11.0816 20.6952 10.8996 20.329 10.5356 20.0198C10.1716 19.7105 9.72892 19.5559 9.20751 19.5559ZM11.0816 2.36841H7.30386C7.04807 2.36841 6.82672 2.44572 6.6398 2.60034C6.45288 2.75496 6.35942 2.93807 6.35942 3.14966C6.35942 3.36125 6.45288 3.54435 6.6398 3.69897C6.82672 3.8536 7.04807 3.93091 7.30386 3.93091H11.0816C11.3374 3.93091 11.5588 3.8536 11.7457 3.69897C11.9326 3.54435 12.0261 3.36125 12.0261 3.14966C12.0261 2.93807 11.9326 2.75496 11.7457 2.60034C11.5588 2.44572 11.3374 2.36841 11.0816 2.36841Z" fill="#C29E60"/>
</g>
<defs>
<clipPath id="clip0_74969:8">
<rect width="17" height="25" fill="white" transform="translate(0.692749 0.0246582)"/>
</clipPath>
</defs>
</svg>
