<svg width="25" height="25" viewBox="0 0 25 25" fill="none" xmlns="http://www.w3.org/2000/svg">
<path d="M8.05823 19.7747C6.72906 19.7747 5.65364 20.8622 5.65364 22.1914C5.65364 23.5206 6.72906 24.6081 8.05823 24.6081C9.38739 24.6081 10.4749 23.5206 10.4749 22.1914C10.4749 20.8622 9.38739 19.7747 8.05823 19.7747ZM20.1416 19.7747C18.8124 19.7747 17.737 20.8622 17.737 22.1914C17.737 23.5206 18.8124 24.6081 20.1416 24.6081C21.4707 24.6081 22.5582 23.5206 22.5582 22.1914C22.5582 20.8622 21.4707 19.7747 20.1416 19.7747ZM18.3895 13.7331C19.2957 13.7331 20.0932 13.2377 20.5041 12.4885L24.8299 4.64641C24.9317 4.46325 24.984 4.25668 24.9815 4.04714C24.9789 3.83759 24.9218 3.63234 24.8156 3.45168C24.7094 3.27102 24.5578 3.12123 24.376 3.01711C24.1941 2.913 23.9882 2.85818 23.7786 2.85807H5.89531L4.75948 0.441406H0.808228V2.85807H3.22489L7.57489 12.0293L5.94364 14.9777C5.06156 16.5968 6.22156 18.5664 8.05823 18.5664H22.5582V16.1497H8.05823L9.38739 13.7331H18.3895ZM7.04323 5.27474H21.7245L18.3895 11.3164H9.90698L7.04323 5.27474Z" fill="#C29E60"/>
</svg>
