<svg width="22" height="20" viewBox="0 0 22 20" fill="none" xmlns="http://www.w3.org/2000/svg">
<path d="M1.00696 18.8108H16.007" stroke="#C29E60" stroke-width="1.5" stroke-linecap="round" stroke-linejoin="round"/>
<path d="M20.007 18.8108H21.007" stroke="#C29E60" stroke-width="1.5" stroke-linecap="round" stroke-linejoin="round"/>
<path d="M1.00696 14.2108V1.41079C1.00696 1.25166 1.07017 1.09905 1.18269 0.986527C1.29522 0.874005 1.44783 0.810791 1.60696 0.810791H20.407C20.5661 0.810791 20.7187 0.874005 20.8312 0.986527C20.9437 1.09905 21.007 1.25166 21.007 1.41079V14.2108C21.007 14.3699 20.9437 14.5225 20.8312 14.6351C20.7187 14.7476 20.5661 14.8108 20.407 14.8108H1.60696C1.44783 14.8108 1.29522 14.7476 1.18269 14.6351C1.07017 14.5225 1.00696 14.3699 1.00696 14.2108V14.2108Z" stroke="#C29E60" stroke-width="1.5"/>
</svg>
