<svg width="48" height="48" viewBox="0 0 48 48" fill="none" xmlns="http://www.w3.org/2000/svg">
<path d="M34.0408 4.39526H14.4574C9.04965 4.39526 4.66577 8.77914 4.66577 14.1869V33.7703C4.66577 39.1781 9.04965 43.5619 14.4574 43.5619H34.0408C39.4486 43.5619 43.8324 39.1781 43.8324 33.7703V14.1869C43.8324 8.77914 39.4486 4.39526 34.0408 4.39526Z" stroke="#C29E60" stroke-width="2" stroke-linecap="round" stroke-linejoin="round"/>
<path d="M32.0824 22.7446C32.3241 24.3744 32.0457 26.039 31.2869 27.5014C30.528 28.9639 29.3273 30.1499 27.8556 30.8907C26.3839 31.6314 24.7161 31.8893 23.0893 31.6275C21.4626 31.3657 19.9599 30.5977 18.7948 29.4326C17.6298 28.2676 16.8617 26.7648 16.6 25.1381C16.3382 23.5114 16.5961 21.8436 17.3368 20.3719C18.0776 18.9001 19.2635 17.6994 20.726 16.9406C22.1885 16.1817 23.853 15.9034 25.4828 16.145C27.1453 16.3916 28.6844 17.1662 29.8728 18.3546C31.0612 19.543 31.8359 21.0821 32.0824 22.7446Z" stroke="#C29E60" stroke-width="2" stroke-linecap="round" stroke-linejoin="round"/>
<path d="M35.0198 13.2078H35.0394" stroke="#C29E60" stroke-width="2" stroke-linecap="round" stroke-linejoin="round"/>
</svg>
