<svg width="24" height="25" viewBox="0 0 24 25" fill="none" xmlns="http://www.w3.org/2000/svg">
<path d="M5 17.3762H4C3.46957 17.3762 2.96086 17.1655 2.58579 16.7904C2.21071 16.4154 2 15.9067 2 15.3762V5.37622C2 4.84579 2.21071 4.33708 2.58579 3.96201C2.96086 3.58693 3.46957 3.37622 4 3.37622H20C20.5304 3.37622 21.0391 3.58693 21.4142 3.96201C21.7893 4.33708 22 4.84579 22 5.37622V15.3762C22 15.9067 21.7893 16.4154 21.4142 16.7904C21.0391 17.1655 20.5304 17.3762 20 17.3762H19" stroke="#C29E60" stroke-width="2" stroke-linecap="round" stroke-linejoin="round"/>
<path d="M12 15.3762L17 21.3762H7L12 15.3762Z" stroke="#C29E60" stroke-width="2" stroke-linecap="round" stroke-linejoin="round"/>
</svg>
